<?xml version="1.0" encoding="utf-8"?>
<!-- Generator: Adobe Illustrator 25.0.0, SVG Export Plug-In . SVG Version: 6.00 Build 0)  -->
<svg version="1.1" id="レイヤー_1" xmlns="http://www.w3.org/2000/svg" xmlns:xlink="http://www.w3.org/1999/xlink" x="0px"
	 y="0px" viewBox="0 0 567.67 139.28" style="enable-background:new 0 0 567.67 139.28;" xml:space="preserve">
<style type="text/css">
	.st0{fill:#ED6C00;}
	.st1{fill:#595757;}
	.st2{fill:#FFFFFF;}
	.st3{fill:#333333;}
</style>
<g>
	<g>
		<g>
			<g>
				<path class="st0" d="M134.25,94.87c4.98,0,9.02-4.04,9.02-9.02c0-4.98-4.04-9.02-9.02-9.02c-4.98,0-9.02,4.04-9.02,9.02
					C125.23,90.83,129.27,94.87,134.25,94.87z"/>
				<path class="st1" d="M172.2,99.23c0-5.02-1.65-9.65-4.43-13.39l0.3-0.41c2.62-3.67,4.13-8.22,4.13-13.07
					c0-12.4-10.05-22.45-22.45-22.45L125,49.85V63.1l24.75,0.23c4.98,0,9.02,4.04,9.02,9.02c0,3.1-1.57,5.84-3.96,7.46h-9.06v11.91
					l9.04,0.02c2.4,1.62,3.97,4.36,3.97,7.48v23.25h13.21L172.2,99.23z"/>
				<rect x="125.12" y="99.1" class="st1" width="13.21" height="23.25"/>
			</g>
			<g>
				<path class="st1" d="M211.3,121.16c-19.92,0-36.06-16.15-36.06-36.06s16.15-36.06,36.06-36.06v13.61
					c-12.4,0-22.45,10.05-22.45,22.45s10.05,22.45,22.45,22.45V121.16z"/>
				<path class="st0" d="M212.55,92.86c4.98,0,9.02-4.04,9.02-9.02c0-4.98-4.04-9.02-9.02-9.02s-9.02,4.04-9.02,9.02
					C203.54,88.83,207.57,92.86,212.55,92.86z"/>
				<path class="st1" d="M213.55,49.03c19.92,0,36.06,16.15,36.06,36.06s-16.15,36.06-36.06,36.06v-13.61
					c12.4,0,22.45-10.05,22.45-22.45s-10.05-22.45-22.45-22.45V49.03z"/>
			</g>
			<g>
				<path class="st1" d="M341.17,121.16c-19.92,0-36.06-16.15-36.06-36.06s16.15-36.06,36.06-36.06v13.61
					c-12.4,0-22.45,10.05-22.45,22.45s10.05,22.45,22.45,22.45V121.16z"/>
				<path class="st0" d="M342.42,92.86c4.98,0,9.02-4.04,9.02-9.02c0-4.98-4.04-9.02-9.02-9.02c-4.98,0-9.02,4.04-9.02,9.02
					C333.41,88.83,337.44,92.86,342.42,92.86z"/>
				<path class="st1" d="M343.42,49.03c19.92,0,36.06,16.15,36.06,36.06s-16.15,36.06-36.06,36.06v-13.61
					c12.4,0,22.45-10.05,22.45-22.45s-10.05-22.45-22.45-22.45V49.03z"/>
			</g>
			<g>
				<path class="st0" d="M262.31,95.51c4.98,0,9.02-4.04,9.02-9.02c0-4.98-4.04-9.02-9.02-9.02c-4.98,0-9.02,4.04-9.02,9.02
					C253.29,91.48,257.33,95.51,262.31,95.51z"/>
				<path class="st1" d="M282.85,92.4c2.4,1.62,3.97,4.36,3.97,7.48c0,4.98-4.04,9.02-9.02,9.02l-24.75-0.14v13.5l24.75,0.08
					c12.4,0,22.45-10.05,22.45-22.45c0-5.02-1.65-9.65-4.43-13.39l0.3-0.41c2.62-3.67,4.13-8.22,4.13-13.07
					c0-12.4-10.05-22.45-22.45-22.45l-24.75-0.05v13.25l24.75,0.23c4.98,0,9.02,4.04,9.02,9.02c0,3.1-1.57,5.84-3.96,7.46h-9.06
					v11.91L282.85,92.4z"/>
			</g>
			<g>
				<path class="st1" d="M386.35,86.48l-0.3-0.41c-2.62-3.67-4.13-8.22-4.13-13.07c0-12.4,10.05-22.45,22.45-22.45l26.42-0.05v13.25
					l-26.42,0.23c-4.98,0-9.02,4.04-9.02,9.02c0,3.1,1.57,5.84,3.96,7.46l4.96,0.71l0.1,12.21l-5.04-0.98
					C399.33,92.4,389.72,91.39,386.35,86.48z"/>
				<path class="st1" d="M426.83,87.14c2.62,3.85,4.43,8.37,4.43,13.39c0,12.4-10.05,22.45-22.45,22.45l-24.75-0.08v-13.5
					l24.75,0.14c4.98,0,9.02-4.04,9.02-9.02c0-3.11-1.58-4.86-3.97-6.48l-8.04-0.7V81.12h8.06
					C413.87,81.12,423.37,82.06,426.83,87.14z"/>
			</g>
			<g>
				<path class="st0" d="M459.75,74.83c-4.98,0-9.02,4.04-9.02,9.02c0,4.98,4.04,9.02,9.02,9.02c4.98,0,9.02-4.04,9.02-9.02
					C468.77,78.87,464.73,74.83,459.75,74.83z"/>
				<rect x="435.09" y="50.65" class="st1" width="13.15" height="71.91"/>
				<rect x="471.34" y="49.65" class="st1" width="13.15" height="72.91"/>
				<rect x="495.68" y="49.65" class="st1" width="13.15" height="72.91"/>
				<rect x="519.93" y="49.65" class="st1" width="13.15" height="72.91"/>
			</g>
			<g>
				<path class="st1" d="M567.67,122.55v-13.61c0,0,0,0,0,0v-59.3h-13.15v52.5c-2.46-3.89-19.07-47.28-21.76-52.73v31.72
					l18.12,41.45L567.67,122.55z"/>
			</g>
		</g>
		<g>
			<polygon class="st1" points="225.64,33.09 220.29,17.7 212.87,17.7 212.87,39.01 217.06,39.01 217.06,21.31 223.56,39.01 
				227.49,39.01 233.86,21.31 233.86,39.01 238.31,39.01 238.31,17.7 231.01,17.7 			"/>
			<path class="st1" d="M249.66,23.74c-2.6,0-4.66,0.75-6.18,2.27c-1.41,1.41-2.11,3.24-2.11,5.5c0,2.2,0.67,4.02,1.98,5.47
				c1.41,1.55,3.33,2.34,5.76,2.34s4.41-0.64,5.92-1.92c1.65-1.39,2.46-3.39,2.46-6.02c0-2.18-0.75-3.99-2.25-5.46
				C253.75,24.47,251.88,23.74,249.66,23.74z M252.13,35.23c-0.55,1.07-1.43,1.6-2.62,1.6c-1.22,0-2.14-0.52-2.76-1.55
				c-0.63-1.04-0.95-2.31-0.95-3.83c0-1.52,0.25-2.69,0.74-3.52c0.64-1.09,1.68-1.63,3.1-1.63c1.15,0,2.01,0.59,2.56,1.76
				c0.43,0.9,0.64,2.03,0.64,3.39C252.83,33.07,252.6,34.34,252.13,35.23z"/>
			<path class="st1" d="M265.05,20.13l-4.13,1.76v2.43h-2.88v2.88h2.88v8.38c0,1.41,0.43,2.4,1.28,2.98
				c0.64,0.43,1.62,0.64,2.94,0.64c0.47,0,0.92-0.01,1.36-0.03c0.44-0.02,1.05-0.08,1.84-0.16v-2.82c-0.08,0-0.24,0.02-0.45,0.06
				c-0.26,0-0.51,0-0.77,0c-0.64,0-1.12-0.08-1.44-0.26c-0.43-0.24-0.64-0.63-0.64-1.18V27.2h3.3v-2.88h-3.3V20.13z"/>
			<rect x="270.3" y="17.7" class="st1" width="4.32" height="3.26"/>
			<rect x="270.3" y="24.32" class="st1" width="4.32" height="14.69"/>
			<path class="st1" d="M285.31,23.74c-2.6,0-4.67,0.75-6.18,2.27c-1.41,1.41-2.11,3.24-2.11,5.5c0,2.2,0.66,4.02,1.98,5.47
				c1.41,1.55,3.33,2.34,5.76,2.34c2.43,0,4.4-0.64,5.92-1.92c1.64-1.39,2.46-3.39,2.46-6.02c0-2.18-0.76-3.99-2.26-5.46
				C289.39,24.47,287.53,23.74,285.31,23.74z M287.77,35.23c-0.56,1.07-1.43,1.6-2.62,1.6c-1.22,0-2.14-0.52-2.77-1.55
				c-0.63-1.04-0.94-2.31-0.94-3.83c0-1.52,0.24-2.69,0.74-3.52c0.64-1.09,1.67-1.63,3.1-1.63c1.15,0,2,0.59,2.56,1.76
				c0.42,0.9,0.64,2.03,0.64,3.39C288.48,33.07,288.24,34.34,287.77,35.23z"/>
			<path class="st1" d="M304.76,23.94c-1.24,0-2.24,0.22-3.01,0.67c-0.44,0.26-1.13,0.85-2.05,1.76v-2.05h-4.45v14.69h4.45v-8
				c0-1.22,0.25-2.2,0.74-2.94c0.58-0.88,1.46-1.31,2.66-1.31c0.88,0,1.57,0.32,2.08,0.96c0.43,0.53,0.64,1.17,0.64,1.89v9.41h4.38
				v-9.38c0-1.55-0.45-2.87-1.34-3.94C307.88,24.52,306.51,23.94,304.76,23.94z"/>
			<polygon class="st1" points="340.98,33.09 335.64,17.7 328.22,17.7 328.22,39.01 332.41,39.01 332.41,21.31 338.9,39.01 
				342.84,39.01 349.21,21.31 349.21,39.01 353.66,39.01 353.66,17.7 346.36,17.7 			"/>
			<path class="st1" d="M370.23,26.14c-1.19-1.6-3.2-2.4-6.02-2.4c-2.41,0-4.27,0.73-5.58,2.2c-1.31,1.46-1.97,3.4-1.97,5.84
				c0,2.39,0.63,4.22,1.89,5.5c1.26,1.28,3.13,1.92,5.6,1.92c2.3,0,4.02-0.38,5.14-1.15c1.12-0.77,1.84-2.07,2.16-3.9h-4.13
				c-0.17,0.94-0.46,1.59-0.88,1.97c-0.42,0.37-1.2,0.56-2.35,0.56c-1.09,0-1.91-0.46-2.46-1.38c-0.45-0.75-0.67-1.72-0.67-2.91
				h10.82C371.76,29.59,371.25,27.51,370.23,26.14z M361.01,29.95c0.13-1.17,0.47-2.09,1.01-2.75c0.54-0.66,1.32-0.99,2.32-0.99
				c0.99,0,1.73,0.35,2.24,1.06c0.41,0.58,0.7,1.47,0.86,2.69H361.01z"/>
			<path class="st1" d="M383.22,35.97c-0.51,0.58-1.18,0.86-2.02,0.86c-1.02,0-1.79-0.36-2.3-1.09c-0.64-0.9-0.96-2.37-0.96-4.42
				c0-1.22,0.2-2.27,0.61-3.17c0.53-1.17,1.35-1.76,2.46-1.76c1.11,0,1.89,0.29,2.33,0.86c0.28,0.37,0.49,1.02,0.64,1.98h4.06
				c0-1.81-0.7-3.22-2.11-4.22c-1.26-0.9-2.84-1.34-4.74-1.34c-2.24,0-4.1,0.77-5.57,2.32c-1.47,1.54-2.21,3.41-2.21,5.58
				c0,2.16,0.61,3.96,1.82,5.41c1.34,1.6,3.17,2.4,5.5,2.4c2.28,0,4.11-0.53,5.48-1.58c1.38-1.06,2.07-2.43,2.07-4.11h-4.32
				C383.99,34.64,383.73,35.39,383.22,35.97z"/>
			<path class="st1" d="M400.94,23.97c-1.13,0-2.22,0.26-3.26,0.77c-1.04,0.51-1.86,1.18-2.43,2.02V17.7h-4.38v21.31h4.38v-7.26
				c0-1.43,0.24-2.58,0.7-3.46c0.56-1.04,1.41-1.57,2.56-1.57c0.9,0,1.59,0.27,2.1,0.8c0.5,0.53,0.75,1.55,0.75,3.04v8.45h4.32v-8.8
				c0-1.66-0.36-3.07-1.09-4.22C403.74,24.64,402.52,23.97,400.94,23.97z"/>
			<path class="st1" d="M422.32,34.88v-5.06c0-1.79-0.45-3.18-1.34-4.16c-1.13-1.24-2.99-1.86-5.57-1.86c-2.29,0-3.97,0.5-5.06,1.5
				c-0.86,0.79-1.28,1.84-1.28,3.14h4.26c0-0.88,0.17-1.48,0.52-1.84c0.35-0.35,0.95-0.53,1.81-0.53c1.04,0,1.74,0.32,2.08,0.96
				c0.26,0.49,0.38,1.42,0.38,2.78c-2.73,0-4.83,0.22-6.27,0.67c-2.43,0.75-3.65,2.18-3.65,4.29c0,1.39,0.49,2.5,1.47,3.33
				c0.9,0.77,2,1.15,3.3,1.15c1.02,0,2.02-0.22,2.98-0.66c0.96-0.44,1.68-1.02,2.18-1.77l0.32,2.18h4.22
				c-0.11-0.7-0.17-1.25-0.19-1.63C422.37,36.27,422.32,35.44,422.32,34.88z M417.58,35.14c-0.47,1.09-1.27,1.63-2.4,1.63
				c-1.02,0-1.76-0.26-2.21-0.77c-0.37-0.4-0.54-1.01-0.54-1.82c0-0.94,0.75-1.61,2.27-2.02c0.9-0.24,2.04-0.35,3.42-0.35
				C418.12,33.2,417.94,34.3,417.58,35.14z"/>
			<path class="st1" d="M434.19,23.94c-1.24,0-2.24,0.22-3.01,0.67c-0.45,0.26-1.13,0.85-2.05,1.76v-2.05h-4.45v14.69h4.45v-8
				c0-1.22,0.24-2.2,0.74-2.94c0.58-0.88,1.46-1.31,2.66-1.31c0.87,0,1.57,0.32,2.08,0.96c0.42,0.53,0.64,1.17,0.64,1.89v9.41h4.38
				v-9.38c0-1.55-0.45-2.87-1.34-3.94C437.3,24.52,435.93,23.94,434.19,23.94z"/>
			<rect x="442.5" y="17.7" class="st1" width="4.32" height="3.26"/>
			<rect x="442.5" y="24.32" class="st1" width="4.32" height="14.69"/>
			<path class="st1" d="M458.85,35.97c-0.51,0.58-1.18,0.86-2.02,0.86c-1.02,0-1.79-0.36-2.3-1.09c-0.64-0.9-0.96-2.37-0.96-4.42
				c0-1.22,0.2-2.27,0.61-3.17c0.53-1.17,1.36-1.76,2.46-1.76c1.11,0,1.89,0.29,2.34,0.86c0.28,0.37,0.49,1.02,0.64,1.98h4.06
				c0-1.81-0.7-3.22-2.11-4.22c-1.26-0.9-2.84-1.34-4.74-1.34c-2.24,0-4.1,0.77-5.57,2.32c-1.47,1.54-2.21,3.41-2.21,5.58
				c0,2.16,0.61,3.96,1.82,5.41c1.34,1.6,3.18,2.4,5.5,2.4c2.29,0,4.11-0.53,5.49-1.58c1.38-1.06,2.07-2.43,2.07-4.11h-4.32
				C459.62,34.64,459.37,35.39,458.85,35.97z"/>
			<path class="st1" d="M477.21,31.07c-0.18-0.11-1.62-0.61-4.29-1.5c-1.54-0.51-2.3-1.14-2.3-1.89c0-0.62,0.33-1.06,0.99-1.31
				c0.38-0.15,0.89-0.22,1.5-0.22c0.51,0,0.97,0.18,1.36,0.56c0.4,0.37,0.59,0.95,0.59,1.74h4.1c0-1.52-0.6-2.69-1.8-3.54
				c-1.2-0.84-2.66-1.26-4.37-1.26c-1.73,0-3.23,0.44-4.49,1.33c-1.27,0.88-1.91,1.95-1.91,3.21c0,1.43,0.75,2.51,2.24,3.26
				c1.39,0.49,2.78,0.97,4.16,1.44c1.5,0.56,2.24,1.32,2.24,2.3c0,0.6-0.2,1.03-0.62,1.28c-0.42,0.26-1.02,0.38-1.81,0.38
				c-0.93,0-1.61-0.24-2.02-0.7c-0.4-0.47-0.61-1.14-0.61-2.02h-4.19c0,2.05,0.68,3.47,2.05,4.26c1,0.58,2.55,0.86,4.64,0.86
				c2.16,0,3.84-0.4,5.04-1.22s1.8-1.98,1.8-3.52C479.52,33.04,478.76,31.88,477.21,31.07z"/>
		</g>
	</g>
	<g>
		<g>
			<g>
				<g>
					<path class="st1" d="M83.04,96.68c1.82-0.57,3.34-1.06,4.47-1.53c-0.01-0.83-0.03-1.67-0.09-2.52
						c-0.03-0.4-0.07-0.79-0.11-1.19c-1.18-0.31-2.74-0.58-4.61-0.89c-0.54-0.09-1.17-0.19-1.82-0.31
						c-0.23-1.66-0.57-3.29-1.01-4.87c0.46-0.33,0.9-0.65,1.29-0.92c1.69-1.2,3.07-2.2,4.02-3.05c-0.39-1.13-0.81-2.25-1.29-3.34
						c-0.17,0.01-0.34,0.01-0.53,0.02c-1.32,0.09-2.96,0.33-4.55,0.57c-0.48,0.07-0.97,0.14-1.45,0.21
						c-0.76-1.55-1.64-3.03-2.6-4.44c0.32-0.44,0.64-0.86,0.91-1.23c1.26-1.69,2.27-3.08,2.9-4.18c-0.69-0.91-1.42-1.78-2.18-2.63
						c-1.32,0.46-2.99,1.29-4.73,2.17c-0.41,0.21-0.82,0.41-1.23,0.61c-1.23-1.25-2.54-2.4-3.93-3.47c0.15-0.47,0.3-0.92,0.44-1.32
						c0.69-2.07,1.24-3.74,1.49-5.01c-0.92-0.63-1.86-1.23-2.83-1.79c-1.01,0.76-2.28,1.98-3.89,3.57c-0.3,0.3-0.62,0.61-0.94,0.92
						c-1.56-0.8-3.18-1.49-4.86-2.07c0-0.47,0.01-0.92,0.01-1.32c0.02-2.2,0.03-3.99-0.13-5.27c-1.07-0.31-2.16-0.57-3.26-0.79
						c-0.73,1.05-1.55,2.6-2.57,4.55c-0.2,0.38-0.42,0.8-0.64,1.23c-1.71-0.26-3.45-0.39-5.22-0.41c-0.15-0.47-0.29-0.92-0.42-1.33
						c-0.64-2.05-1.18-3.72-1.71-4.89c-0.37,0.01-0.75,0.02-1.12,0.04c-0.77,0.05-1.54,0.12-2.3,0.21c-0.35,1.22-0.65,2.9-0.99,4.97
						c-0.08,0.46-0.16,0.99-0.26,1.53c-1.7,0.29-3.37,0.7-4.98,1.22c-0.31-0.42-0.6-0.84-0.87-1.21c-1.22-1.72-2.22-3.1-3.06-4.04
						c-1.13,0.42-2.24,0.89-3.32,1.4c0.05,1.27,0.29,2.95,0.59,4.98c0.07,0.48,0.16,1.04,0.24,1.61c-1.46,0.79-2.86,1.67-4.19,2.63
						c-0.51-0.37-1.02-0.75-1.51-1.11c-1.54-1.15-2.81-2.06-3.83-2.68c-0.97,0.77-1.9,1.58-2.8,2.43c0.45,1.15,1.13,2.56,1.98,4.26
						c0.26,0.52,0.56,1.12,0.87,1.75c-1.08,1.15-2.1,2.36-3.03,3.64c-0.66-0.21-1.33-0.44-2.01-0.66c-1.53-0.51-3-1-4.23-1.31
						c-0.72,1.09-1.38,2.21-2,3.36c0.76,0.9,1.79,1.95,3,3.18C8.64,78.44,9.2,79,9.75,79.58c-0.64,1.35-1.19,2.75-1.66,4.18
						c-0.77,0-1.58,0-2.38-0.01c-1.44-0.02-2.93-0.03-4.16,0.04c-0.36,1.31-0.67,2.64-0.91,3.99c0.96,0.58,2.16,1.21,3.55,1.93
						c0.68,0.35,1.5,0.78,2.3,1.22c-0.17,1.39-0.26,2.81-0.27,4.24c-0.89,0.3-1.79,0.58-2.54,0.82C2.26,96.44,1.02,96.83,0,97.21
						c0.02,0.38,0.02,0.77,0.05,1.16c0.07,1.04,0.19,2.07,0.32,3.09c1.02,0.22,2.25,0.43,3.65,0.66c0.84,0.14,1.88,0.31,2.88,0.51
						c0.26,1.33,0.58,2.64,0.97,3.91c-0.8,0.6-1.64,1.2-2.32,1.68c-1.15,0.82-2.16,1.54-2.98,2.19c0.51,1.4,1.08,2.77,1.72,4.09
						c1.12-0.12,2.37-0.3,3.6-0.49c1.01-0.15,2.03-0.3,2.97-0.41c0.62,1.13,1.3,2.23,2.04,3.29c-0.63,0.91-1.32,1.84-1.88,2.59
						c-0.76,1.02-1.43,1.93-1.98,2.73c0.91,1.18,1.89,2.32,2.91,3.4c0.96-0.43,2-0.95,3.08-1.49c0.98-0.49,1.97-0.98,2.88-1.4
						c0.91,0.86,1.86,1.68,2.85,2.44c-0.32,1.08-0.7,2.22-1.01,3.13c-0.4,1.18-0.74,2.22-1.01,3.15c1.24,0.86,2.52,1.66,3.84,2.39
						c0.71-0.64,1.5-1.41,2.4-2.3c0.75-0.74,1.58-1.56,2.37-2.27c1.11,0.54,2.25,1.03,3.42,1.46c0.03,1.12,0.02,2.32,0.01,3.27
						c-0.01,1.25-0.02,2.37,0,3.33c1.43,0.44,2.9,0.82,4.39,1.12c0.47-0.83,0.99-1.82,1.57-2.93c0.45-0.87,1-1.92,1.54-2.88
						c1.23,0.18,2.48,0.3,3.75,0.36c0.36,1.03,0.71,2.15,0.99,3.03c0.39,1.24,0.73,2.33,1.07,3.26c0.84-0.01,1.68-0.03,2.52-0.09
						c0.65-0.04,1.3-0.11,1.94-0.18c0.2-0.96,0.39-2.07,0.6-3.33c0.15-0.91,0.34-2.06,0.56-3.13c1.29-0.21,2.56-0.48,3.8-0.81
						c0.61,0.81,1.23,1.67,1.75,2.4c0.81,1.15,1.53,2.14,2.17,2.96c1.41-0.46,2.78-0.99,4.12-1.59c-0.11-1.05-0.29-2.29-0.5-3.71
						c-0.12-0.81-0.27-1.82-0.39-2.8c1.22-0.61,2.39-1.3,3.52-2.03c0.78,0.54,1.59,1.14,2.33,1.7c1.17,0.87,2.18,1.61,3.05,2.18
						c1.14-0.83,2.24-1.72,3.29-2.66c-0.44-1.01-1.01-2.18-1.69-3.54c-0.34-0.69-0.76-1.52-1.16-2.36c1.02-1,1.98-2.05,2.88-3.16
						c0.79,0.25,1.62,0.52,2.44,0.8c1.39,0.47,2.73,0.91,3.89,1.23c0.8-1.1,1.54-2.24,2.23-3.41c-0.75-0.87-1.73-1.88-2.89-3.05
						c-0.48-0.49-1.06-1.08-1.63-1.68c0.71-1.33,1.33-2.71,1.87-4.13c0.73,0,1.48,0.01,2.23,0.01c1.54,0.02,3.14,0.04,4.41-0.05
						c0.39-1.23,0.74-2.48,1.02-3.75c-1.01-0.63-2.34-1.34-3.92-2.16c-0.54-0.28-1.19-0.62-1.83-0.97c0.27-1.55,0.45-3.13,0.52-4.73
						C81.87,97.05,82.5,96.85,83.04,96.68z"/>
				</g>
				<path class="st0" d="M58.62,95.58c0.54,8.18-5.66,15.25-13.85,15.79c-8.18,0.54-15.25-5.66-15.79-13.85
					c-0.54-8.18,5.66-15.25,13.85-15.79C51.02,81.2,58.09,87.39,58.62,95.58z"/>
			</g>
			<g>
				<g>
					<path class="st1" d="M98.68,54.24c1.08-0.98,2.08-2.04,2.99-3.17c1.74,0.72,3.74,1.64,5.62,2.5c0.02,0.01,0.03,0.02,0.05,0.02
						c1.17-1.6,2.19-3.28,3.05-5.02c-0.04-0.03-0.08-0.06-0.12-0.09c-1.46-1.1-3.26-2.45-4.81-3.69c0.58-1.34,1.05-2.74,1.41-4.18
						c0.22-0.01,0.45-0.02,0.7-0.03c1.62-0.07,3.44-0.1,5.25-0.13c0.11,0,0.21,0,0.32-0.01c0.39-1.9,0.61-3.83,0.66-5.77
						c-0.11-0.02-0.21-0.04-0.32-0.06c-1.76-0.35-3.9-0.77-5.8-1.21c0-0.21,0-0.41-0.01-0.62c-0.06-1.35-0.21-2.67-0.46-3.96
						c1.61-0.87,3.4-1.78,4.89-2.52c0.28-0.14,0.54-0.27,0.81-0.41c-0.44-1.88-1.05-3.72-1.82-5.51c-0.37,0.1-0.74,0.19-1.11,0.29
						c-1.73,0.45-3.47,0.9-5.05,1.27c-0.73-1.49-1.58-2.9-2.56-4.22c1.04-1.43,2.2-2.94,3.17-4.2c0.27-0.36,0.52-0.68,0.78-1.02
						c-0.93-1.14-1.93-2.25-3.03-3.29c-0.27-0.25-0.54-0.49-0.81-0.73c-0.42,0.35-0.84,0.71-1.29,1.09c-1.18,1-2.47,2.09-3.69,3.09
						c-1.38-1.11-2.86-2.09-4.44-2.92c0.29-1.55,0.63-3.15,0.91-4.51c0.15-0.73,0.29-1.41,0.43-2.06c-1.65-0.77-3.35-1.4-5.08-1.89
						c-0.3,0.66-0.61,1.35-0.94,2.1c-0.54,1.2-1.16,2.6-1.79,3.96c-1.82-0.42-3.71-0.67-5.64-0.71c-0.35-1.34-0.69-2.69-0.98-3.87
						C79.72,1.76,79.49,0.85,79.27,0c-1.75,0.04-3.51,0.22-5.24,0.54c0.02,0.85,0.04,1.76,0.07,2.75c0.04,1.23,0.08,2.64,0.1,4.03
						c-1.99,0.46-3.9,1.13-5.69,1.99c-0.87-1.03-1.74-2.07-2.49-2.98c-0.69-0.84-1.33-1.61-1.92-2.31c-1.5,0.81-2.96,1.74-4.35,2.79
						c0.46,0.91,0.97,1.89,1.53,2.98c0.5,0.96,1.06,2.04,1.61,3.13c-1.56,1.3-2.98,2.77-4.22,4.38c-1.09-0.49-2.22-1-3.3-1.5
						c-1.02-0.47-2.01-0.92-2.98-1.35c-1,1.43-1.87,2.92-2.62,4.45c0.79,0.61,1.66,1.26,2.62,1.99c0.88,0.66,1.88,1.41,2.88,2.18
						c-0.8,1.83-1.39,3.77-1.77,5.77c-1.18,0.03-2.42,0.06-3.67,0.08c-1.06,0.02-2.12,0.04-3.14,0.06
						c-0.24,1.73-0.36,3.47-0.33,5.21c0.86,0.18,1.8,0.36,2.81,0.56c1.19,0.23,2.55,0.5,3.9,0.79c0.11,1.98,0.44,3.91,0.95,5.75
						c-1.19,0.62-2.41,1.24-3.47,1.77c-0.9,0.45-1.73,0.87-2.5,1.27c0.57,1.71,1.28,3.39,2.13,5.01c0.82-0.21,1.66-0.42,2.49-0.64
						c1.36-0.35,2.73-0.71,4.03-1.02c0.93,1.6,2.01,3.09,3.23,4.46c-0.95,1.28-1.96,2.6-2.82,3.72c-0.4,0.51-0.77,1-1.12,1.46
						c0.3,0.3,0.59,0.6,0.9,0.89c1.04,0.98,2.13,1.88,3.25,2.71c0.43-0.36,0.86-0.73,1.32-1.12c1.19-1.01,2.49-2.11,3.72-3.11
						c1.42,0.95,2.92,1.77,4.51,2.44c-0.31,1.7-0.69,3.5-1.01,5.02c-0.09,0.43-0.17,0.83-0.26,1.23c1.78,0.66,3.61,1.15,5.46,1.49
						c0.13-0.29,0.25-0.57,0.39-0.87c0.67-1.51,1.49-3.33,2.28-4.98c1.55,0.22,3.14,0.3,4.75,0.25c0.49,1.77,0.98,3.73,1.38,5.35
						c0.06,0.25,0.12,0.47,0.18,0.71c1.92-0.16,3.82-0.48,5.69-0.96c0-0.09-0.01-0.18-0.01-0.27c-0.05-1.82-0.12-4.04-0.12-6.02
						c1.47-0.45,2.88-1.03,4.23-1.71c1.33,1.5,2.79,3.26,3.97,4.69c0.01,0.02,0.03,0.03,0.04,0.05c1.68-0.95,3.29-2.06,4.81-3.31
						c-0.04-0.07-0.07-0.14-0.11-0.21C100.54,57.97,99.52,56,98.68,54.24z"/>
				</g>
				<path class="st0" d="M88.22,25.2c4.73,4.48,4.93,11.94,0.46,16.67c-4.48,4.73-11.94,4.94-16.67,0.46
					c-4.73-4.48-4.93-11.94-0.46-16.67C76.03,20.92,83.49,20.72,88.22,25.2z"/>
			</g>
		</g>
		<g>
			<g>
				<g>
					<g>
						<path class="st0" d="M89.76,45.81L89.76,45.81L66.59,27.85l-34.41,4.57c0,0-3.61,0.63-6.13,3.24l21.04,15.98L89.76,45.81z"/>
						<path class="st1" d="M47.09,53.65c-0.43,0-0.86-0.14-1.21-0.41L24.84,37.26c-0.46-0.35-0.74-0.87-0.78-1.44
							c-0.04-0.57,0.16-1.13,0.55-1.54c2.93-3.04,7.05-3.79,7.22-3.82l34.5-4.59c0.53-0.07,1.07,0.07,1.49,0.4l23.17,17.95
							c0.49,0.38,0.77,0.96,0.77,1.58c0,1-0.74,1.85-1.73,1.99l-42.67,5.83C47.27,53.64,47.18,53.65,47.09,53.65z M29.32,35.64
							l18.32,13.91l37.13-5.08L66.03,29.95l-33.59,4.46c0,0,0,0,0,0C32.45,34.41,30.92,34.71,29.32,35.64z M89.76,45.81L89.76,45.81
							L89.76,45.81z"/>
					</g>
					<g>
						<path class="st2" d="M47.09,51.65L26.05,35.67c-1.27,1.32-2.27,3.14-2.35,5.65v35.99l23.4,17.39l42.67-5.39v-43.5L47.09,51.65
							z"/>
						<path class="st1" d="M47.09,96.7c-0.43,0-0.85-0.14-1.19-0.4L22.5,78.92c-0.51-0.38-0.81-0.97-0.81-1.6V41.33
							c0.1-2.79,1.08-5.13,2.91-7.04c0.7-0.73,1.84-0.82,2.65-0.21l20.39,15.47l41.85-5.72c0.57-0.08,1.15,0.09,1.59,0.47
							s0.69,0.93,0.69,1.51v43.5c0,1.01-0.75,1.86-1.75,1.98l-42.67,5.39C47.26,96.7,47.17,96.7,47.09,96.7z M25.69,76.31
							l21.95,16.31l40.12-5.07V48.1l-40.4,5.52c-0.52,0.08-1.06-0.07-1.48-0.39L26.44,38.48c-0.46,0.86-0.71,1.83-0.75,2.91
							L25.69,76.31z"/>
					</g>
					<g>
						<polygon class="st2" points="26.05,35.67 26.05,35.67 47.09,51.65 						"/>
						<path class="st3" d="M47.09,53.65c-0.42,0-0.85-0.13-1.21-0.41L24.84,37.27c-0.88-0.67-1.05-1.91-0.39-2.79
							c0.06-0.08,0.12-0.15,0.19-0.22c0.71-0.71,1.83-0.78,2.62-0.18L48.3,50.05c0.88,0.67,1.05,1.92,0.38,2.8
							C48.29,53.37,47.7,53.65,47.09,53.65z"/>
					</g>
				</g>
				<g>
					<polyline class="st2" points="47.09,94.68 47.09,51.65 89.76,45.81 					"/>
					<path class="st1" d="M47.09,96.68c-1.1,0-2-0.9-2-2V51.65c0-1,0.74-1.85,1.73-1.98l42.67-5.84c1.09-0.15,2.1,0.62,2.25,1.71
						c0.15,1.09-0.62,2.1-1.71,2.25l-40.94,5.6v41.29C49.09,95.78,48.2,96.68,47.09,96.68z"/>
				</g>
				<g>
					<path class="st2" d="M47.09,51.65l42.67-5.84L66.59,27.85c-13.4,0.71-23.08-4.98-28.83-11.48
						C36.64,19.62,33.59,40.65,47.09,51.65z"/>
					<path class="st1" d="M47.09,53.65c-0.46,0-0.9-0.16-1.26-0.45c-14.58-11.88-11.19-33.92-9.95-37.48
						c0.23-0.67,0.8-1.17,1.5-1.31c0.7-0.14,1.42,0.1,1.89,0.64c3.86,4.37,12.54,11.57,27.22,10.81c0.47-0.03,0.95,0.12,1.33,0.42
						l23.17,17.95c0.64,0.49,0.92,1.32,0.71,2.1c-0.21,0.78-0.86,1.35-1.66,1.46l-42.67,5.84C47.27,53.64,47.18,53.65,47.09,53.65z
						 M38.99,20.45c-0.86,6.65-0.88,20.67,8.72,29.1l37.07-5.07L65.95,29.88C52.8,30.36,44.05,25.04,38.99,20.45z"/>
				</g>
			</g>
			<g>
				<g>
					<path class="st1" d="M60.51,65.38c0,2.48-1.23,4.5-2.76,4.5c-1.52,0-2.76-2.01-2.76-4.5c0-2.48,1.23-4.5,2.76-4.5
						C59.27,60.88,60.51,62.9,60.51,65.38z"/>
					<path class="st1" d="M85.82,63.15c0,2.48-1.23,4.5-2.76,4.5c-1.52,0-2.76-2.01-2.76-4.5c0-2.48,1.23-4.5,2.76-4.5
						C84.58,58.65,85.82,60.67,85.82,63.15z"/>
					<path class="st1" d="M72.42,76.98c-0.9,0-1.72-0.61-1.94-1.52c-0.26-1.07,0.39-2.16,1.46-2.42c1.54-0.38,3.13-0.89,4.31-1.35
						c-5.79-3.36-5.61-7.46-5.56-7.96c0.1-1.1,1.07-1.91,2.17-1.81c1.08,0.1,1.88,1.04,1.81,2.11c0,0.21,0.14,2.72,5.07,4.96
						c1.93,0.88,2.01,2.29,1.96,2.86c-0.08,0.89-0.28,2.97-8.81,5.07C72.74,76.96,72.58,76.98,72.42,76.98z"/>
				</g>
				<path class="st1" d="M73.59,84.81c-2.98,0-5.77-1.35-7.37-2.56c-0.88-0.67-1.06-1.92-0.39-2.8c0.67-0.88,1.92-1.06,2.8-0.39
					c0.55,0.41,5.47,3.87,8.94-0.2c0.72-0.84,1.98-0.94,2.82-0.22c0.84,0.72,0.94,1.98,0.22,2.82
					C78.49,83.94,75.98,84.81,73.59,84.81z"/>
			</g>
		</g>
	</g>
</g>
</svg>
